<?xml version="1.0" encoding="UTF-8"?>
<!DOCTYPE svg PUBLIC "-//W3C//DTD SVG 1.1//EN" "http://www.w3.org/Graphics/SVG/1.1/DTD/svg11.dtd">
<svg xmlns="http://www.w3.org/2000/svg" version="1.1" width="17px" height="17px" style="shape-rendering:geometricPrecision; text-rendering:geometricPrecision; image-rendering:optimizeQuality; fill-rule:evenodd; clip-rule:evenodd" xmlns:xlink="http://www.w3.org/1999/xlink">
<g><path style="opacity:0.408" fill="#ff9085" d="M 1.5,-0.5 C 2.5,-0.5 3.5,-0.5 4.5,-0.5C 3.96528,1.44563 2.63195,2.44563 0.5,2.5C 0.556884,1.39105 0.890217,0.391047 1.5,-0.5 Z"/></g>
<g><path style="opacity:0.333" fill="#ff8e82" d="M 11.5,-0.5 C 12.5,-0.5 13.5,-0.5 14.5,-0.5C 14.5,-0.166667 14.5,0.166667 14.5,0.5C 12.8608,1.4725 11.5274,2.80584 10.5,4.5C 9.16667,4.5 8.5,3.83333 8.5,2.5C 9.83333,1.83333 10.8333,0.833333 11.5,-0.5 Z"/></g>
<g><path style="opacity:1" fill="#ff7769" d="M 4.5,-0.5 C 4.83333,-0.5 5.16667,-0.5 5.5,-0.5C 6.16667,0.833333 7.16667,1.83333 8.5,2.5C 8.5,3.83333 9.16667,4.5 10.5,4.5C 10.2648,5.09674 9.7648,5.43007 9,5.5C 6.45343,3.82252 3.6201,3.15586 0.5,3.5C 0.166667,3.5 -0.166667,3.5 -0.5,3.5C -0.5,3.16667 -0.5,2.83333 -0.5,2.5C -0.166667,2.5 0.166667,2.5 0.5,2.5C 2.63195,2.44563 3.96528,1.44563 4.5,-0.5 Z"/></g>
<g><path style="opacity:1" fill="#ff7163" d="M 14.5,0.5 C 15.1667,0.833333 15.8333,1.16667 16.5,1.5C 16.5,1.83333 16.5,2.16667 16.5,2.5C 15.5,3.16667 14.5,3.83333 13.5,4.5C 12.5,4.5 11.5,4.5 10.5,4.5C 11.5274,2.80584 12.8608,1.4725 14.5,0.5 Z"/></g>
<g><path style="opacity:0.929" fill="#ff665a" d="M 0.5,3.5 C 3.6201,3.15586 6.45343,3.82252 9,5.5C 9.7648,5.43007 10.2648,5.09674 10.5,4.5C 11.5,4.5 12.5,4.5 13.5,4.5C 13.0472,5.45837 12.3805,6.2917 11.5,7C 8.84944,7.15339 6.51611,7.98672 4.5,9.5C 4.5,8.83333 4.16667,8.5 3.5,8.5C 2.07501,7.07797 1.07501,5.4113 0.5,3.5 Z"/></g>
<g><path style="opacity:0.901" fill="#fe5851" d="M 16.5,2.5 C 16.5,3.5 16.5,4.5 16.5,5.5C 12.5,7.16667 12.5,8.83333 16.5,10.5C 16.5,10.8333 16.5,11.1667 16.5,11.5C 13.0145,10.4095 9.68119,10.4095 6.5,11.5C 5.5,11.5 4.5,11.5 3.5,11.5C 3.83333,10.8333 4.16667,10.1667 4.5,9.5C 6.51611,7.98672 8.84944,7.15339 11.5,7C 12.3805,6.2917 13.0472,5.45837 13.5,4.5C 14.5,3.83333 15.5,3.16667 16.5,2.5 Z"/></g>
<g><path style="opacity:0.404" fill="#ff7470" d="M 3.5,8.5 C 4.16667,8.5 4.5,8.83333 4.5,9.5C 4.16667,10.1667 3.83333,10.8333 3.5,11.5C 2.60895,12.1098 1.60895,12.4431 0.5,12.5C 0.737579,10.5956 1.73758,9.26231 3.5,8.5 Z"/></g>
<g><path style="opacity:1" fill="#ff4c48" d="M 6.5,11.5 C 9.68119,10.4095 13.0145,10.4095 16.5,11.5C 16.5,11.8333 16.5,12.1667 16.5,12.5C 15.5178,13.1408 14.5178,13.8075 13.5,14.5C 11.3379,12.9802 9.00458,11.9802 6.5,11.5 Z"/></g>
<g><path style="opacity:1" fill="#ff4d4a" d="M 3.5,11.5 C 4.5,11.5 5.5,11.5 6.5,11.5C 5.01011,13.2798 3.01011,13.9465 0.5,13.5C 0.166667,13.5 -0.166667,13.5 -0.5,13.5C -0.5,13.1667 -0.5,12.8333 -0.5,12.5C -0.166667,12.5 0.166667,12.5 0.5,12.5C 1.60895,12.4431 2.60895,12.1098 3.5,11.5 Z"/></g>
<g><path style="opacity:0.329" fill="#fd3c3b" d="M 6.5,11.5 C 9.00458,11.9802 11.3379,12.9802 13.5,14.5C 14.5178,13.8075 15.5178,13.1408 16.5,12.5C 16.5,13.1667 16.5,13.8333 16.5,14.5C 15.5,14.8333 14.8333,15.5 14.5,16.5C 13.5,16.5 12.5,16.5 11.5,16.5C 9.5,12.5 7.5,12.5 5.5,16.5C 4.5,16.5 3.5,16.5 2.5,16.5C 1.83333,15.5 1.16667,14.5 0.5,13.5C 3.01011,13.9465 5.01011,13.2798 6.5,11.5 Z"/></g>
</svg>
