<?xml version="1.0" encoding="UTF-8"?>
<!DOCTYPE svg PUBLIC "-//W3C//DTD SVG 1.1//EN" "http://www.w3.org/Graphics/SVG/1.1/DTD/svg11.dtd">
<svg xmlns="http://www.w3.org/2000/svg" version="1.1" width="21px" height="19px" style="shape-rendering:geometricPrecision; text-rendering:geometricPrecision; image-rendering:optimizeQuality; fill-rule:evenodd; clip-rule:evenodd" xmlns:xlink="http://www.w3.org/1999/xlink">
<g><path style="opacity:0.137" fill="#4c4c4c" d="M 15.5,0.5 C 15.5,0.166667 15.5,-0.166667 15.5,-0.5C 16.8333,-0.5 18.1667,-0.5 19.5,-0.5C 19.5,0.166667 19.8333,0.5 20.5,0.5C 20.5,1.5 20.5,2.5 20.5,3.5C 20.1667,3.5 19.8333,3.5 19.5,3.5C 19.3059,1.08824 17.9726,0.0882357 15.5,0.5 Z"/></g>
<g><path style="opacity:0.217" fill="#888888" d="M 15.5,0.5 C 15.573,2.02694 14.9063,3.02694 13.5,3.5C 13.427,1.97306 14.0937,0.973056 15.5,0.5 Z"/></g>
<g><path style="opacity:1" fill="#93c817" d="M 15.5,0.5 C 17.9726,0.0882357 19.3059,1.08824 19.5,3.5C 18.0937,3.97306 17.427,4.97306 17.5,6.5C 17.1667,6.5 16.8333,6.5 16.5,6.5C 16.1788,4.95186 15.1788,4.28519 13.5,4.5C 13.5,4.16667 13.5,3.83333 13.5,3.5C 14.9063,3.02694 15.573,2.02694 15.5,0.5 Z"/></g>
<g><path style="opacity:0.162" fill="#000000" d="M 19.5,3.5 C 19.573,5.02694 18.9063,6.02694 17.5,6.5C 17.427,4.97306 18.0937,3.97306 19.5,3.5 Z"/></g>
<g><path style="opacity:0.215" fill="#858585" d="M 13.5,3.5 C 13.5,3.83333 13.5,4.16667 13.5,4.5C 12.1667,6.5 10.8333,8.5 9.5,10.5C 8.33199,13.4689 6.99865,13.8022 5.5,11.5C 6.23891,11.631 6.90558,11.4643 7.5,11C 9.15899,8.15629 11.159,5.65629 13.5,3.5 Z"/></g>
<g><path style="opacity:0.164" fill="#000000" d="M 16.5,6.5 C 16.8333,6.5 17.1667,6.5 17.5,6.5C 15.9125,10.6829 13.5792,14.3495 10.5,17.5C 11.242,15.0202 12.242,12.6869 13.5,10.5C 14.9744,9.56366 15.9744,8.23033 16.5,6.5 Z"/></g>
<g><path style="opacity:1" fill="#90cc12" d="M 13.5,4.5 C 15.1788,4.28519 16.1788,4.95186 16.5,6.5C 15.9744,8.23033 14.9744,9.56366 13.5,10.5C 12.1667,10.5 10.8333,10.5 9.5,10.5C 10.8333,8.5 12.1667,6.5 13.5,4.5 Z"/></g>
<g><path style="opacity:0.349" fill="#575757" d="M 5.5,11.5 C 3.98261,11.4894 2.81595,10.8228 2,9.5C 0.480712,11.1392 0.314045,12.8058 1.5,14.5C 0.833333,14.5 0.166667,14.5 -0.5,14.5C -0.5,13.1667 -0.5,11.8333 -0.5,10.5C 1.84638,7.82479 3.84638,8.15813 5.5,11.5 Z"/></g>
<g><path style="opacity:0.999" fill="#82c505" d="M 5.5,11.5 C 6.99865,13.8022 8.33199,13.4689 9.5,10.5C 10.8333,10.5 12.1667,10.5 13.5,10.5C 12.242,12.6869 11.242,15.0202 10.5,17.5C 8.80081,17.6602 7.13414,17.4935 5.5,17C 4.52912,15.5187 3.19578,14.6854 1.5,14.5C 0.314045,12.8058 0.480712,11.1392 2,9.5C 2.81595,10.8228 3.98261,11.4894 5.5,11.5 Z"/></g>
<g><path style="opacity:0.191" fill="#000000" d="M 1.5,14.5 C 3.19578,14.6854 4.52912,15.5187 5.5,17C 7.13414,17.4935 8.80081,17.6602 10.5,17.5C 10.5,17.8333 10.5,18.1667 10.5,18.5C 8.5,18.5 6.5,18.5 4.5,18.5C 3.5,17.1667 2.5,15.8333 1.5,14.5 Z"/></g>
</svg>
