<?xml version="1.0" encoding="UTF-8"?>
<!DOCTYPE svg PUBLIC "-//W3C//DTD SVG 1.1//EN" "http://www.w3.org/Graphics/SVG/1.1/DTD/svg11.dtd">
<svg xmlns="http://www.w3.org/2000/svg" version="1.1" width="17px" height="17px" style="shape-rendering:geometricPrecision; text-rendering:geometricPrecision; image-rendering:optimizeQuality; fill-rule:evenodd; clip-rule:evenodd" xmlns:xlink="http://www.w3.org/1999/xlink">
<g><path style="opacity:0.382" fill="#fefffe" d="M 3.5,-0.5 C 6.5,-0.5 9.5,-0.5 12.5,-0.5C 13.8637,1.19107 15.197,2.85774 16.5,4.5C 16.5,6.83333 16.5,9.16667 16.5,11.5C 15.1667,13.5 13.5,15.1667 11.5,16.5C 9.16667,16.5 6.83333,16.5 4.5,16.5C 2.5,15.1667 0.833333,13.5 -0.5,11.5C -0.5,8.83333 -0.5,6.16667 -0.5,3.5C 1.16667,2.5 2.5,1.16667 3.5,-0.5 Z M 4.5,12.5 C 6.62816,11.3709 8.96149,11.2042 11.5,12C 9.26019,13.8071 6.92686,13.9738 4.5,12.5 Z"/></g>
</svg>
