<?xml version="1.0" encoding="UTF-8"?>
<!DOCTYPE svg PUBLIC "-//W3C//DTD SVG 1.1//EN" "http://www.w3.org/Graphics/SVG/1.1/DTD/svg11.dtd">
<svg xmlns="http://www.w3.org/2000/svg" version="1.1" width="17px" height="19px" style="shape-rendering:geometricPrecision; text-rendering:geometricPrecision; image-rendering:optimizeQuality; fill-rule:evenodd; clip-rule:evenodd" xmlns:xlink="http://www.w3.org/1999/xlink">
<g><path style="opacity:0.76" fill="#fefffe" d="M 6.5,-0.5 C 7.5,-0.5 8.5,-0.5 9.5,-0.5C 10.8714,1.25915 11.8714,3.25915 12.5,5.5C 11.0499,6.84983 10.3832,8.5165 10.5,10.5C 12.5,11.1667 14.5,11.8333 16.5,12.5C 16.5,13.8333 16.5,15.1667 16.5,16.5C 14.8212,16.2852 13.8212,16.9519 13.5,18.5C 12.5,18.5 11.5,18.5 10.5,18.5C 6.93944,17.7698 3.27277,17.1031 -0.5,16.5C -0.5,15.5 -0.5,14.5 -0.5,13.5C 0.941689,11.3838 2.94169,9.88383 5.5,9C 2.63608,5.37616 2.96942,2.20949 6.5,-0.5 Z"/></g>
</svg>
