<?xml version="1.0" encoding="UTF-8"?>
<!DOCTYPE svg PUBLIC "-//W3C//DTD SVG 1.1//EN" "http://www.w3.org/Graphics/SVG/1.1/DTD/svg11.dtd">
<svg xmlns="http://www.w3.org/2000/svg" version="1.1" width="22px" height="20px" style="shape-rendering:geometricPrecision; text-rendering:geometricPrecision; image-rendering:optimizeQuality; fill-rule:evenodd; clip-rule:evenodd" xmlns:xlink="http://www.w3.org/1999/xlink">
<g><path style="opacity:0.76" fill="#4c4d4c" d="M 10.5,-0.5 C 11.1667,-0.5 11.8333,-0.5 12.5,-0.5C 15.1667,2.83333 18.1667,5.83333 21.5,8.5C 21.5,9.5 21.5,10.5 21.5,11.5C 18.5,13.8333 15.8333,16.5 13.5,19.5C 12.1667,19.5 10.8333,19.5 9.5,19.5C 10.0913,16.3864 11.758,13.8864 14.5,12C 9.51108,11.5007 4.51108,11.3341 -0.5,11.5C -0.5,10.5 -0.5,9.5 -0.5,8.5C 4.51108,8.66593 9.51108,8.49926 14.5,8C 12.5,6 10.5,4 8.5,2C 9.38053,1.2917 10.0472,0.458367 10.5,-0.5 Z"/></g>
</svg>
