<?xml version="1.0" encoding="UTF-8"?>
<!DOCTYPE svg PUBLIC "-//W3C//DTD SVG 1.1//EN" "http://www.w3.org/Graphics/SVG/1.1/DTD/svg11.dtd">
<svg xmlns="http://www.w3.org/2000/svg" version="1.1" width="22px" height="20px" style="shape-rendering:geometricPrecision; text-rendering:geometricPrecision; image-rendering:optimizeQuality; fill-rule:evenodd; clip-rule:evenodd" xmlns:xlink="http://www.w3.org/1999/xlink">
<g><path style="opacity:0.755" fill="#4c4d4c" d="M 8.5,-0.5 C 9.16667,-0.5 9.83333,-0.5 10.5,-0.5C 10.9528,0.458367 11.6195,1.2917 12.5,2C 10.5,4 8.5,6 6.5,8C 11.4889,8.49926 16.4889,8.66593 21.5,8.5C 21.5,9.5 21.5,10.5 21.5,11.5C 16.4889,11.3341 11.4889,11.5007 6.5,12C 8.5,14 10.5,16 12.5,18C 11.944,18.3826 11.6107,18.8826 11.5,19.5C 10.1667,19.5 8.83333,19.5 7.5,19.5C 5.16667,16.5 2.5,13.8333 -0.5,11.5C -0.5,10.5 -0.5,9.5 -0.5,8.5C 2.83333,5.83333 5.83333,2.83333 8.5,-0.5 Z"/></g>
</svg>
