<?xml version="1.0" encoding="UTF-8"?>
<!DOCTYPE svg PUBLIC "-//W3C//DTD SVG 1.1//EN" "http://www.w3.org/Graphics/SVG/1.1/DTD/svg11.dtd">
<svg xmlns="http://www.w3.org/2000/svg" version="1.1" width="15px" height="15px" style="shape-rendering:geometricPrecision; text-rendering:geometricPrecision; image-rendering:optimizeQuality; fill-rule:evenodd; clip-rule:evenodd" xmlns:xlink="http://www.w3.org/1999/xlink">
<g><path style="opacity:0.627" fill="#898b8a" d="M 4.5,-0.5 C 7.16667,-0.5 9.83333,-0.5 12.5,-0.5C 12.8333,0.5 13.5,1.16667 14.5,1.5C 14.5,4.16667 14.5,6.83333 14.5,9.5C 11.9354,12.225 8.93543,12.8916 5.5,11.5C 4.14507,12.1882 3.14507,13.1882 2.5,14.5C 1.5,14.5 0.5,14.5 -0.5,14.5C -0.5,13.5 -0.5,12.5 -0.5,11.5C 2.45477,10.258 3.12144,8.25798 1.5,5.5C 1.9837,3.19917 2.9837,1.19917 4.5,-0.5 Z M 6.5,2.5 C 10.6772,1.84156 12.1772,3.50822 11,7.5C 8.13064,10.0087 5.96397,9.342 4.5,5.5C 5.19251,4.48224 5.85917,3.48224 6.5,2.5 Z"/></g>
</svg>
